<?xml version="1.0" standalone="no"?>
<!DOCTYPE svg PUBLIC "-//W3C//DTD SVG 20010904//EN"
 "http://www.w3.org/TR/2001/REC-SVG-20010904/DTD/svg10.dtd">
<svg version="1.0" xmlns="http://www.w3.org/2000/svg"
 width="1440.000000pt" height="1440.000000pt" viewBox="0 0 1440.000000 1440.000000"
 preserveAspectRatio="xMidYMid meet">

<g transform="translate(0.000000,1440.000000) scale(0.100000,-0.100000)"
fill="#000000" stroke="none">
<path d="M8640 10296 c0 -2 8 -10 18 -17 15 -13 16 -12 3 4 -13 16 -21 21 -21
13z"/>
<path d="M8777 10125 c3 -8 9 -12 14 -9 12 7 11 11 -5 17 -10 4 -13 1 -9 -8z"/>
<path d="M8847 10020 c3 -11 9 -20 15 -20 5 0 4 9 -2 20 -6 11 -12 20 -14 20
-2 0 -2 -9 1 -20z"/>
<path d="M8920 9898 c0 -9 5 -20 10 -23 13 -8 13 5 0 25 -8 13 -10 13 -10 -2z"/>
<path d="M8975 9790 c4 -14 16 -41 27 -60 17 -32 18 -33 13 -7 -3 15 -15 42
-26 60 -17 27 -19 28 -14 7z"/>
<path d="M9046 9630 c4 -14 13 -47 21 -75 8 -27 19 -70 24 -94 5 -24 13 -49
18 -55 5 -6 12 -27 16 -46 4 -19 14 -55 22 -80 8 -25 16 -56 18 -70 4 -42 17
-90 24 -90 4 0 13 -28 20 -62 7 -35 15 -70 17 -78 5 -20 -16 -50 -23 -32 -2 6
-13 12 -24 12 -16 0 -19 -6 -17 -35 2 -38 -9 -57 -21 -36 -7 11 -10 11 -14 0
-3 -9 -6 -6 -6 7 -1 16 -9 23 -32 28 -47 9 -49 8 -49 -18 0 -13 -6 -26 -12
-29 -8 -2 -9 -8 -4 -13 5 -5 11 -4 13 4 3 6 16 12 29 12 21 0 24 -4 24 -40 0
-29 4 -40 15 -40 11 0 15 -11 15 -40 0 -29 4 -40 15 -40 11 0 15 11 15 40 0
39 1 40 35 40 34 0 46 12 25 25 -15 9 -12 25 4 19 18 -7 26 25 19 77 -4 28 -3
40 4 36 6 -4 14 -34 18 -67 4 -33 11 -60 16 -60 5 0 9 -16 9 -35 0 -19 5 -43
11 -53 8 -12 8 -27 0 -52 l-11 -35 5 33 c4 32 4 32 -35 32 l-40 0 -1 -42 c-2
-30 -3 -35 -6 -15 -9 58 -53 11 -53 -56 0 -35 -4 -47 -15 -47 -8 0 -15 7 -15
15 0 11 -11 15 -40 15 -29 0 -40 -4 -40 -15 0 -8 -7 -15 -15 -15 -11 0 -15
-11 -15 -39 0 -33 -4 -40 -22 -44 -14 -3 -9 -5 15 -6 30 -1 37 -5 37 -21 0
-17 -7 -20 -40 -20 -36 0 -40 3 -40 25 0 21 -5 25 -30 25 -28 0 -30 -2 -30
-40 0 -38 2 -40 30 -40 28 0 30 -2 30 -39 0 -39 -1 -40 -37 -43 -36 -3 -38 -5
-41 -40 l-3 -38 40 0 41 0 0 40 0 40 40 0 40 0 0 40 0 40 40 0 40 0 0 40 0 40
40 0 40 0 0 40 0 40 43 0 c43 0 43 0 39 31 -3 22 -1 30 6 25 7 -4 11 -26 10
-49 -2 -39 22 -87 44 -87 3 0 8 10 10 23 2 14 9 0 19 -40 10 -36 13 -67 8 -75
-6 -9 -9 -6 -10 12 0 14 -3 19 -6 13 -3 -9 -30 -13 -84 -13 l-79 0 0 -40 0
-40 -44 0 c-39 0 -50 -5 -84 -40 -31 -32 -46 -40 -75 -40 -21 0 -37 -4 -37
-10 0 -5 -18 -10 -40 -10 -38 0 -40 -2 -40 -30 0 -28 -2 -30 -40 -30 l-40 0 0
-40 c0 -36 -2 -40 -25 -40 -22 0 -25 -4 -25 -40 0 -35 3 -40 24 -40 22 0 24
-5 31 -76 4 -41 4 -78 1 -81 -3 -4 -6 10 -6 30 0 36 -1 37 -40 37 -39 0 -40
-1 -40 -35 0 -34 -1 -35 -40 -35 l-40 0 0 -40 c0 -39 -1 -40 -34 -40 -34 0
-35 -1 -39 -42 l-4 -43 -1 43 -2 42 -40 0 -40 0 0 -40 0 -40 -40 0 -40 0 0
-40 0 -40 -40 0 c-40 0 -40 0 -40 -40 0 -29 5 -42 20 -50 11 -6 20 -15 20 -21
0 -6 -9 -13 -20 -16 -15 -4 -20 -14 -20 -37 0 -27 6 -35 37 -50 25 -12 39 -14
41 -7 2 6 21 11 43 11 32 0 39 -3 39 -20 0 -13 -7 -20 -20 -20 -11 0 -20 -4
-20 -10 0 -5 -9 -10 -20 -10 -11 0 -20 7 -20 15 0 11 -12 15 -49 15 l-49 0 5
40 c4 26 2 40 -6 40 -6 0 -11 -3 -12 -7 0 -5 -3 -20 -5 -36 -6 -35 14 -76 27
-56 7 11 9 10 9 -3 0 -49 -55 7 -65 65 -4 20 -12 37 -19 37 -7 0 -23 23 -36
50 -13 28 -27 50 -32 50 -4 0 -8 7 -8 15 0 8 -4 15 -10 15 -5 0 -10 5 -10 11
0 17 -140 179 -155 179 -3 0 -14 8 -24 18 -36 32 -50 42 -60 42 -6 0 -16 9
-23 20 -7 11 -17 20 -23 20 -5 0 -23 11 -39 25 -16 14 -33 25 -38 25 -5 0 -38
13 -73 30 -76 36 -136 56 -190 65 -22 4 -50 13 -62 21 -17 10 -23 11 -26 1 -4
-9 -8 -8 -16 3 -8 11 -4 17 17 27 26 13 26 13 -8 6 -52 -9 -399 -9 -442 1 -25
5 -38 5 -38 -2 0 -6 10 -13 23 -15 17 -3 15 -5 -8 -5 -16 -1 -41 5 -55 13 -27
16 -132 18 -215 5 l-50 -7 43 -2 c23 0 42 -5 42 -11 0 -6 32 -11 73 -12 l72
-2 -75 -6 c-61 -5 -66 -7 -30 -9 25 -2 59 -2 75 -1 17 0 44 -6 60 -14 17 -9
38 -16 48 -16 12 0 17 -8 17 -30 0 -20 5 -30 15 -30 10 0 15 11 15 35 0 19 5
35 11 35 7 0 9 -23 4 -75 -5 -53 -4 -75 4 -75 7 0 11 -28 11 -80 0 -47 4 -80
10 -80 6 0 10 -18 10 -40 l0 -40 40 0 40 0 0 -40 c0 -33 3 -40 20 -40 17 0 20
7 20 40 0 33 -3 40 -20 40 -17 0 -20 7 -20 40 l0 40 -40 0 -40 0 0 120 0 120
40 0 40 0 0 41 0 40 38 -3 37 -3 3 -157 3 -158 39 0 c40 0 40 0 40 -40 l0 -40
-40 0 -40 0 0 -80 0 -80 40 0 40 0 0 -40 0 -40 -40 0 c-39 0 -40 -1 -40 -35 0
-24 -5 -35 -15 -35 -25 0 -65 -23 -65 -37 0 -9 -13 -13 -40 -13 -22 0 -40 -4
-40 -10 0 -5 -18 -10 -40 -10 -38 0 -40 1 -40 31 l0 32 -36 -38 -36 -38 24
-19 c21 -17 22 -19 3 -17 -11 1 -29 1 -40 0 -17 -1 -18 -3 -5 -12 12 -9 12
-10 -3 -5 -10 3 -23 6 -28 6 -5 0 -9 5 -9 10 0 6 10 10 22 10 12 0 19 3 15 6
-3 3 -18 3 -34 0 -20 -5 -29 -13 -29 -26 0 -15 5 -18 18 -14 10 3 18 1 18 -5
0 -6 -11 -11 -25 -11 -13 0 -41 -10 -62 -22 -21 -12 -67 -36 -103 -55 -36 -19
-75 -45 -87 -59 -12 -13 -36 -27 -53 -30 -16 -4 -27 -10 -25 -14 3 -5 -6 -17
-20 -28 -14 -11 -25 -25 -25 -32 0 -7 -7 -10 -15 -6 -8 3 -15 0 -15 -7 0 -7
-21 -34 -45 -61 -25 -27 -45 -54 -45 -60 0 -10 18 8 86 85 28 32 112 102 135
113 11 5 19 12 19 16 0 9 95 68 169 105 46 23 107 45 236 85 94 28 305 38 438
20 144 -20 329 -91 457 -174 124 -81 263 -224 337 -346 35 -57 109 -212 123
-255 7 -22 34 -85 60 -140 78 -162 200 -284 358 -361 128 -63 204 -77 372 -71
145 5 205 19 302 68 157 79 260 178 347 337 69 125 100 239 108 395 5 112 4
123 -26 225 -34 118 -144 510 -171 612 -9 36 -26 97 -38 135 -11 39 -39 138
-62 220 -22 83 -47 173 -55 200 -8 28 -30 106 -50 175 -19 69 -46 166 -61 215
-14 50 -32 117 -40 150 -8 33 -24 89 -36 125 -11 36 -29 99 -40 140 -10 41
-23 89 -28 105 -5 17 -20 73 -34 125 -14 52 -29 104 -34 115 -11 24 -31 100
-44 170 -5 27 -16 61 -23 75 -7 14 -21 57 -30 95 -10 39 -26 86 -37 105 -13
25 -17 28 -12 10z m184 -741 c0 -5 -4 -9 -10 -9 -5 0 -10 7 -10 16 0 8 5 12
10 9 6 -3 10 -10 10 -16z m90 -231 c0 -5 -4 -8 -10 -8 -5 0 -10 10 -10 23 0
18 2 19 10 7 5 -8 10 -18 10 -22z m7 -58 c-5 -38 5 -54 17 -27 3 6 3 1 0 -13
-4 -14 -8 -27 -10 -29 -10 -11 -22 18 -27 62 -4 37 -1 47 11 47 11 0 13 -9 9
-40z m65 -252 c-8 -8 -9 -4 -5 13 4 13 8 18 11 10 2 -7 -1 -18 -6 -23z m-272
-138 c0 -28 -2 -30 -40 -30 -38 0 -40 2 -40 30 0 28 2 30 40 30 38 0 40 -2 40
-30z m77 -32 c-2 -13 -4 -3 -4 22 0 25 2 35 4 23 2 -13 2 -33 0 -45z m260 -25
c1 -10 4 -31 7 -48 3 -16 3 -21 0 -10 -4 11 -11 26 -16 32 -6 7 -8 20 -4 28 7
20 11 19 13 -2z m-457 -83 c0 -5 -9 -10 -20 -10 -11 0 -20 5 -20 10 0 6 9 10
20 10 11 0 20 -4 20 -10z m-40 -40 c0 -17 -7 -20 -40 -20 -33 0 -40 3 -40 20
0 17 7 20 40 20 33 0 40 -3 40 -20z m80 -10 c0 -14 -6 -20 -22 -19 -13 0 -17
3 -10 6 6 2 12 11 12 19 0 8 5 14 10 14 6 0 10 -9 10 -20z m-2012 3 c-10 -2
-28 -2 -40 0 -13 2 -5 4 17 4 22 1 32 -1 23 -4z m2459 -15 c-3 -8 -6 -5 -6 6
-1 11 2 17 5 13 3 -3 4 -12 1 -19z m-2540 6 c-3 -3 -12 -4 -19 -1 -8 3 -5 6 6
6 11 1 17 -2 13 -5z m220 -1 c-20 -2 -52 -2 -70 0 -17 2 0 4 38 4 39 0 53 -2
32 -4z m1693 -53 c0 -29 -4 -40 -15 -40 -11 0 -15 11 -15 40 0 29 4 40 15 40
11 0 15 -11 15 -40z m100 -215 c0 -12 -16 -15 -80 -15 -64 0 -80 3 -80 15 0
12 16 15 80 15 64 0 80 -3 80 -15z m-292 -48 c2 -10 -3 -17 -12 -17 -10 0 -16
9 -16 21 0 24 23 21 28 -4z m-188 -137 l0 -40 -40 0 -40 0 0 40 0 40 40 0 40
0 0 -40z m220 11 c0 -28 -14 -41 -46 -41 -9 0 -14 11 -14 35 0 32 2 35 30 35
26 0 30 -3 30 -29z m20 -41 c0 -5 -7 -10 -16 -10 -8 0 -12 5 -9 10 3 6 10 10
16 10 5 0 9 -4 9 -10z m-396 -249 c3 -5 -1 -12 -10 -15 -22 -9 -24 -8 -24 9 0
16 25 21 34 6z m-1016 -12 c-2 -6 -8 -10 -13 -10 -5 0 -11 4 -13 10 -2 6 4 11
13 11 9 0 15 -5 13 -11z m1012 -59 c0 -5 -5 -10 -11 -10 -5 0 -7 5 -4 10 3 6
8 10 11 10 2 0 4 -4 4 -10z m-1325 -20 c-27 -12 -43 -12 -25 0 8 5 22 9 30 9
10 0 8 -3 -5 -9z"/>
<path d="M8060 9555 c0 -5 5 -17 10 -25 5 -8 10 -10 10 -5 0 6 -5 17 -10 25
-5 8 -10 11 -10 5z"/>
<path d="M8136 9397 c3 -10 9 -15 12 -12 3 3 0 11 -7 18 -10 9 -11 8 -5 -6z"/>
<path d="M8181 9244 c0 -11 3 -14 6 -6 3 7 2 16 -1 19 -3 4 -6 -2 -5 -13z"/>
<path d="M8195 9155 c3 -38 5 -103 5 -144 0 -41 3 -72 6 -69 9 9 4 199 -6 243
-8 33 -9 28 -5 -30z"/>
<path d="M9137 9155 c-4 -8 -2 -17 3 -20 6 -4 10 3 10 14 0 25 -6 27 -13 6z"/>
<path d="M8960 9107 c0 -15 36 -48 44 -40 3 4 6 -1 6 -10 0 -12 -9 -17 -31
-17 -28 0 -31 -3 -25 -22 3 -13 6 -31 6 -40 0 -14 9 -18 40 -18 l40 0 0 80 0
80 -40 0 c-26 0 -40 -5 -40 -13z"/>
<path d="M9130 8950 c-9 -6 -10 -10 -3 -10 6 0 15 5 18 10 8 12 4 12 -15 0z"/>
<path d="M8937 8943 c-14 -13 -7 -63 8 -63 9 0 15 9 15 23 0 26 -14 50 -23 40z"/>
<path d="M8192 8904 c-1 -17 -4 -47 -7 -65 l-5 -34 11 34 c5 18 8 47 6 65 l-4
31 -1 -31z"/>
<path d="M9230 8810 c0 -5 7 -10 15 -10 8 0 15 5 15 10 0 6 -7 10 -15 10 -8 0
-15 -4 -15 -10z"/>
<path d="M8136 8683 c-6 -14 -5 -15 5 -6 7 7 10 15 7 18 -3 3 -9 -2 -12 -12z"/>
<path d="M9058 8633 c12 -2 32 -2 45 0 12 2 2 4 -23 4 -25 0 -35 -2 -22 -4z"/>
<path d="M8800 8550 c0 -5 18 -10 40 -10 22 0 40 5 40 10 0 6 -18 10 -40 10
-22 0 -40 -4 -40 -10z"/>
<path d="M8062 8530 c-7 -11 -8 -20 -3 -20 9 0 24 30 18 36 -1 2 -8 -6 -15
-16z"/>
<path d="M8625 8270 c-3 -5 -1 -10 4 -10 6 0 11 5 11 10 0 6 -2 10 -4 10 -3 0
-8 -4 -11 -10z"/>
<path d="M6338 8073 c12 -2 32 -2 45 0 12 2 2 4 -23 4 -25 0 -35 -2 -22 -4z"/>
<path d="M6453 8073 c15 -2 27 -11 27 -19 0 -9 9 -13 24 -12 19 2 22 5 14 15
-6 7 -14 11 -18 8 -5 -3 -11 -1 -15 5 -3 5 -18 9 -33 9 l-27 -2 28 -4z"/>
<path d="M6560 8060 c0 -5 12 -10 28 -10 21 0 24 2 12 10 -20 13 -40 13 -40 0z"/>
<path d="M6615 8030 c11 -5 31 -9 45 -9 23 0 23 1 5 9 -11 5 -31 9 -45 9 -23
0 -23 -1 -5 -9z"/>
<path d="M6880 7950 c0 -5 7 -10 16 -10 8 0 12 5 9 10 -3 6 -10 10 -16 10 -5
0 -9 -4 -9 -10z"/>
<path d="M6880 7800 c0 -22 -4 -40 -10 -40 -5 0 -10 -18 -10 -40 0 -22 5 -40
10 -40 6 0 10 18 10 40 l0 40 40 0 40 0 0 40 0 40 -40 0 -40 0 0 -40z"/>
<path d="M6780 7720 c0 -22 5 -40 10 -40 6 0 10 18 10 40 0 22 -4 40 -10 40
-5 0 -10 -18 -10 -40z"/>
<path d="M6880 7560 l0 -40 40 0 40 0 0 40 0 40 -40 0 -40 0 0 -40z"/>
<path d="M8216 7555 c4 -8 10 -15 15 -15 5 0 9 7 9 15 0 8 -7 15 -15 15 -9 0
-12 -6 -9 -15z"/>
<path d="M7020 7440 l0 -80 50 0 50 0 0 40 0 40 -40 0 -40 0 0 40 c0 22 -4 40
-10 40 -6 0 -10 -33 -10 -80z"/>
<path d="M8230 7514 c0 -3 6 -12 14 -20 20 -19 26 -18 26 6 0 13 -7 20 -20 20
-11 0 -20 -3 -20 -6z"/>
<path d="M6676 7098 c-21 -10 -36 -21 -33 -24 5 -6 87 33 87 41 0 8 -13 4 -54
-17z"/>
<path d="M6565 7030 c-3 -6 1 -7 9 -4 18 7 21 14 7 14 -6 0 -13 -4 -16 -10z"/>
<path d="M6440 6940 c-8 -5 -12 -12 -9 -15 4 -3 12 1 19 10 14 17 11 19 -10 5z"/>
<path d="M6270 6698 c-26 -41 -40 -71 -36 -75 4 -4 26 27 60 85 13 22 -9 13
-24 -10z"/>
<path d="M6187 6557 c-13 -29 -37 -91 -52 -138 -15 -46 -34 -97 -41 -112 -18
-37 -18 -57 -1 -32 16 24 33 69 53 144 8 30 23 69 33 85 28 45 51 106 41 106
-5 0 -19 -24 -33 -53z"/>
<path d="M6050 6215 c-5 -14 -14 -25 -20 -25 -5 0 -10 -6 -10 -14 0 -8 -13
-28 -30 -44 -16 -17 -30 -35 -30 -40 0 -6 -6 -13 -12 -15 -7 -3 -8 -6 -2 -6
10 -1 24 14 90 98 31 39 47 71 34 71 -6 0 -15 -11 -20 -25z"/>
<path d="M5920 6049 c0 -5 5 -7 10 -4 6 3 10 8 10 11 0 2 -4 4 -10 4 -5 0 -10
-5 -10 -11z"/>
<path d="M5885 6020 c-3 -5 -2 -10 4 -10 5 0 13 5 16 10 3 6 2 10 -4 10 -5 0
-13 -4 -16 -10z"/>
<path d="M5844 5985 c-10 -8 -14 -14 -9 -14 6 0 19 6 29 14 11 8 15 15 10 15
-6 0 -19 -7 -30 -15z"/>
<path d="M5790 5945 c-11 -13 -10 -14 4 -9 9 3 16 10 16 15 0 13 -6 11 -20 -6z"/>
<path d="M5640 5870 c-23 -7 -23 -8 -3 -9 12 -1 25 4 28 9 3 6 5 10 3 9 -2 -1
-14 -5 -28 -9z"/>
<path d="M5528 5833 c6 -2 18 -2 25 0 6 3 1 5 -13 5 -14 0 -19 -2 -12 -5z"/>
<path d="M5313 5823 c9 -2 25 -2 35 0 9 3 1 5 -18 5 -19 0 -27 -2 -17 -5z"/>
<path d="M5413 5823 c15 -2 37 -2 50 0 12 2 0 4 -28 4 -27 0 -38 -2 -22 -4z"/>
<path d="M11072 5030 c0 -19 2 -27 5 -17 2 9 2 25 0 35 -3 9 -5 1 -5 -18z"/>
<path d="M11332 5020 c0 -19 2 -27 5 -17 2 9 2 25 0 35 -3 9 -5 1 -5 -18z"/>
<path d="M10220 4971 c0 -17 4 -32 8 -35 4 -2 6 11 4 30 -5 42 -12 45 -12 5z"/>
<path d="M9269 4937 c5 -5 28 -7 52 -5 l44 3 -52 5 c-29 3 -48 1 -44 -3z"/>
<path d="M9378 4933 c6 -2 18 -2 25 0 6 3 1 5 -13 5 -14 0 -19 -2 -12 -5z"/>
<path d="M11558 4933 c23 -2 61 -2 85 0 23 2 4 4 -43 4 -47 0 -66 -2 -42 -4z"/>
<path d="M12082 4880 c0 -14 2 -19 5 -12 2 6 2 18 0 25 -3 6 -5 1 -5 -13z"/>
<path d="M9443 4840 c0 -25 2 -35 4 -22 2 12 2 32 0 45 -2 12 -4 2 -4 -23z"/>
<path d="M12092 4820 c0 -14 2 -19 5 -12 2 6 2 18 0 25 -3 6 -5 1 -5 -13z"/>
<path d="M10667 4823 c-4 -3 -7 -11 -7 -17 0 -6 5 -5 12 2 6 6 9 14 7 17 -3 3
-9 2 -12 -2z"/>
<path d="M10926 4783 c-6 -14 -5 -15 5 -6 7 7 10 15 7 18 -3 3 -9 -2 -12 -12z"/>
<path d="M11853 4760 c0 -25 2 -35 4 -22 2 12 2 32 0 45 -2 12 -4 2 -4 -23z"/>
<path d="M12100 4630 c-2 -106 -5 -141 -10 -110 -5 35 -7 38 -9 15 -1 -23 -3
-27 -11 -15 -5 8 -10 10 -10 4 0 -8 -11 -9 -37 -4 -24 6 -42 5 -50 -2 -9 -7
-13 -7 -13 2 0 19 -30 -8 -31 -29 -1 -9 -5 -2 -9 14 l-8 30 -2 -30 c-1 -16 -4
-24 -7 -17 -2 6 -9 10 -13 7 -5 -3 -7 -12 -3 -20 3 -9 2 -41 -2 -73 -8 -57 -8
-57 -17 -22 -4 19 -6 60 -3 92 3 31 2 59 -3 62 -5 3 -63 8 -129 12 -155 9
-229 -9 -268 -66 -14 -20 -25 -50 -25 -68 l0 -31 -32 32 c-22 21 -45 33 -68
35 -19 2 -40 11 -46 20 -11 15 -14 11 -20 -25 -3 -24 -10 -43 -15 -43 -5 0 -9
19 -10 43 l-1 42 -13 -55 c-33 -143 -33 -142 -34 -68 -1 39 4 70 10 74 6 3 9
18 6 33 -6 34 40 111 77 129 15 8 25 16 22 20 -13 12 -58 -24 -88 -71 -29 -46
-32 -57 -36 -158 -6 -154 23 -220 123 -281 81 -49 133 -62 245 -63 116 0 171
15 247 67 23 15 44 28 47 28 2 0 7 -13 11 -30 8 -39 53 -52 155 -48 68 3 76 5
87 28 14 28 16 296 3 550 l-6 145 -4 -155z m-302 -106 l52 -7 0 -66 c0 -128
-71 -191 -215 -191 -126 0 -175 37 -175 130 0 77 31 117 105 133 32 7 175 7
233 1z m245 -51 c-24 -2 -43 -8 -43 -14 0 -5 -18 -9 -40 -9 -22 0 -40 4 -40 9
0 10 54 18 125 18 l40 0 -42 -4z"/>
<path d="M9442 4745 c0 -16 2 -22 5 -12 2 9 2 23 0 30 -3 6 -5 -1 -5 -18z"/>
<path d="M10597 4733 c-4 -3 -7 -11 -7 -17 0 -6 5 -5 12 2 6 6 9 14 7 17 -3 3
-9 2 -12 -2z"/>
<path d="M8279 4533 c-1 -104 -5 -233 -9 -288 l-7 -100 -1 129 c-1 71 -4 127
-7 124 -3 -3 -7 -59 -8 -124 -1 -66 -3 -100 -5 -76 l-3 42 -80 0 -79 0 0 -41
c0 -24 -4 -38 -10 -34 -5 3 -10 1 -10 -5 0 -6 -4 -8 -10 -5 -6 4 -10 58 -11
128 0 78 -4 115 -9 102 -5 -11 -9 -78 -9 -148 -1 -124 0 -129 24 -153 25 -25
30 -26 121 -22 81 2 98 6 110 22 11 16 14 78 14 328 0 169 -2 308 -5 308 -3 0
-6 -84 -6 -187z m-12 -415 c-3 -8 -6 -5 -6 6 -1 11 2 17 5 13 3 -3 4 -12 1
-19z m-17 -28 c0 -5 -5 -10 -11 -10 -5 0 -7 5 -4 10 3 6 8 10 11 10 2 0 4 -4
4 -10z m-93 -6 c-3 -3 -12 -4 -19 -1 -8 3 -5 6 6 6 11 1 17 -2 13 -5z"/>
<path d="M10857 4692 c-10 -10 -17 -22 -17 -27 0 -5 9 1 21 14 12 12 19 24 17
27 -3 2 -12 -4 -21 -14z"/>
<path d="M11576 4691 c5 -5 52 -12 104 -14 52 -3 110 -9 128 -12 20 -5 32 -3
32 3 0 6 -33 13 -72 16 -184 14 -201 15 -192 7z"/>
<path d="M10550 4658 l-23 -33 28 28 c15 16 25 31 22 33 -3 3 -15 -10 -27 -28z"/>
<path d="M11402 4669 c-35 -11 -62 -22 -60 -25 3 -2 27 3 54 11 27 8 63 15 79
16 17 0 39 4 50 9 42 18 -60 9 -123 -11z"/>
<path d="M9444 4490 c1 -187 3 -197 27 -250 62 -133 183 -192 391 -191 121 0
185 21 204 67 17 41 18 111 1 144 -12 24 -15 25 -107 21 -102 -3 -171 9 -202
38 -10 10 -27 40 -37 66 -10 27 -21 43 -25 37 -4 -7 -2 -20 3 -31 8 -14 7 -22
-4 -31 -17 -14 -20 -30 -6 -30 5 0 11 8 13 18 3 15 5 14 16 -4 9 -17 9 -22 -1
-21 -6 0 -53 -1 -103 -1 l-91 -2 -8 -32 c-5 -18 -8 -39 -8 -45 2 -30 -16 -10
-28 32 -7 25 -16 45 -19 45 -3 0 -5 30 -5 68 0 37 -3 119 -6 182 -5 92 -6 75
-5 -80z m336 -204 c0 -3 -4 -8 -10 -11 -5 -3 -10 -1 -10 4 0 6 5 11 10 11 6 0
10 -2 10 -4z m208 -28 c1 -5 0 -8 -3 -8 -3 0 -18 0 -35 0 -16 0 -30 3 -30 8 0
4 15 7 33 7 17 0 33 -3 35 -7z m57 2 c3 -5 -3 -10 -15 -10 -12 0 -18 5 -15 10
3 6 10 10 15 10 5 0 12 -4 15 -10z m-98 -186 c-3 -3 -12 -4 -19 -1 -8 3 -5 6
6 6 11 1 17 -2 13 -5z"/>
<path d="M2452 4647 c-7 -16 -12 -31 -12 -34 0 -3 -6 -19 -14 -36 -48 -107
-160 -408 -163 -440 -8 -60 5 -67 117 -67 118 0 118 0 165 137 18 54 41 115
49 136 l16 37 278 2 277 2 -225 6 c-217 6 -227 7 -280 32 -33 16 -78 50 -110
84 -30 31 -56 52 -58 46 -5 -15 -32 -16 -32 -1 0 5 4 7 10 4 6 -3 7 1 4 9 -3
9 -1 16 6 16 6 0 8 5 4 12 -4 7 -11 28 -14 48 l-7 35 -11 -28z m-13 -143 c-7
-13 -17 -24 -23 -24 -6 0 -5 5 2 12 7 7 12 26 12 43 1 26 2 28 11 11 8 -13 8
-25 -2 -42z m71 -13 c0 -10 -7 -24 -15 -31 -13 -11 -15 -8 -15 19 0 21 5 31
15 31 8 0 15 -8 15 -19z m-45 -1 c3 -5 1 -10 -4 -10 -6 0 -11 5 -11 10 0 6 2
10 4 10 3 0 8 -4 11 -10z m-65 -103 c0 -7 -9 -18 -20 -25 -23 -14 -25 -10 -8
18 14 23 28 26 28 7z m-6 -52 c-4 -8 -11 -15 -16 -15 -6 0 -5 6 2 15 7 8 14
15 16 15 2 0 1 -7 -2 -15z m-31 -25 c3 -11 1 -18 -4 -14 -5 3 -9 12 -9 20 0
20 7 17 13 -6z m-50 -110 c-5 -19 -23 -39 -23 -25 0 9 20 45 24 45 2 0 2 -9
-1 -20z"/>
<path d="M6993 4600 c0 -25 2 -35 4 -22 2 12 2 32 0 45 -2 12 -4 2 -4 -23z"/>
<path d="M7689 4478 c-1 -90 -1 -186 1 -215 3 -79 -3 -89 -50 -85 -49 5 -53
22 -5 22 19 0 35 5 35 10 0 6 -15 10 -34 10 -19 0 -37 6 -40 13 -5 10 -7 10
-12 0 -3 -7 -14 -13 -24 -13 -21 0 -36 -16 -20 -22 6 -2 1 -12 -11 -22 l-22
-18 7 41 c5 32 3 41 -8 41 -11 0 -13 -10 -9 -42 3 -24 9 -47 14 -52 18 -20 8
-29 -11 -11 -17 15 -20 32 -22 104 l-1 86 -6 -77 c-9 -111 -21 -107 -22 8 -1
115 -7 216 -14 223 -3 2 -5 -79 -5 -181 0 -231 0 -231 115 -236 43 -3 95 1
116 7 l39 12 0 279 c0 154 -2 280 -5 280 -3 0 -6 -73 -6 -162z m-199 -375 c0
-13 -3 -13 -15 -3 -8 7 -15 19 -15 27 0 13 3 13 15 3 8 -7 15 -19 15 -27z"/>
<path d="M10767 4579 c-26 -34 -47 -69 -47 -77 0 -8 14 5 32 29 17 24 34 46
37 49 4 3 14 17 24 33 32 50 2 28 -46 -34z"/>
<path d="M8769 4395 c-5 -236 -2 -296 21 -319 6 -6 53 -13 105 -14 138 -6 135
-11 135 226 0 124 -4 182 -10 172 -5 -8 -10 -90 -10 -182 0 -92 -4 -169 -8
-172 -5 -3 -7 29 -4 70 2 42 0 92 -4 112 -8 35 -9 33 -14 -33 l-6 -70 -3 70
c-2 52 -5 64 -11 48 -6 -14 -21 -24 -44 -29 -20 -3 -36 -12 -36 -20 0 -7 -16
-16 -35 -20 -61 -11 -64 -1 -67 213 l-3 188 -6 -240z m18 -217 c-2 -13 -4 -3
-4 22 0 25 2 35 4 23 2 -13 2 -33 0 -45z"/>
<path d="M10507 4613 c-4 -3 -7 -11 -7 -17 0 -6 5 -5 12 2 6 6 9 14 7 17 -3 3
-9 2 -12 -2z"/>
<path d="M10444 4523 c-15 -21 -31 -40 -34 -43 -3 -3 -16 -21 -28 -40 -12 -19
-33 -48 -48 -65 -14 -16 -50 -64 -80 -107 -61 -86 -70 -135 -35 -179 l19 -24
396 -3 c263 -2 403 1 416 8 28 15 44 78 36 144 -11 86 -11 86 -267 86 -118 0
-219 3 -222 7 -4 3 4 20 16 37 13 17 40 54 61 82 l36 52 -32 -2 c-29 -2 -33
-5 -34 -31 -1 -54 -3 -57 -25 -50 -14 5 -25 2 -30 -6 -8 -12 -10 -12 -18 0 -5
8 -10 9 -12 3 -6 -14 -129 -22 -129 -8 -1 6 -9 1 -19 -11 -10 -12 -21 -20 -24
-17 -3 3 -16 0 -29 -7 -21 -11 -22 -11 -9 4 7 10 21 17 31 17 22 0 30 9 23 26
-4 11 -9 12 -19 3 -23 -19 -16 6 10 34 38 41 90 116 84 122 -3 3 -18 -11 -34
-32z m226 -68 c0 -8 -4 -15 -10 -15 -5 0 -10 7 -10 15 0 8 5 15 10 15 6 0 10
-7 10 -15z m-50 -70 c0 -9 -42 -47 -47 -42 -6 6 28 47 39 47 5 0 8 -2 8 -5z
m-233 -61 c-3 -3 -12 -4 -19 -1 -8 3 -5 6 6 6 11 1 17 -2 13 -5z m-97 -63 c-6
-12 -15 -21 -21 -21 -5 0 -2 11 7 25 20 30 31 26 14 -4z m-63 -118 c-3 -10 -5
-4 -5 12 0 17 2 24 5 18 2 -7 2 -21 0 -30z"/>
<path d="M8033 4515 c0 -22 2 -30 4 -17 2 12 2 30 0 40 -3 9 -5 -1 -4 -23z"/>
<path d="M11455 4539 c-10 -15 3 -25 16 -12 7 7 7 13 1 17 -6 3 -14 1 -17 -5z"/>
<path d="M7242 4505 c0 -16 2 -22 5 -12 2 9 2 23 0 30 -3 6 -5 -1 -5 -18z"/>
<path d="M9018 4510 c-7 -24 -3 -38 8 -28 3 4 4 17 2 30 l-3 23 -7 -25z"/>
<path d="M6980 4483 c-3 -23 -2 -39 3 -34 5 5 7 24 5 42 -3 33 -4 33 -8 -8z"/>
<path d="M11360 4490 c0 -20 4 -30 8 -23 4 7 19 16 32 22 22 9 23 10 5 10 -12
1 -26 6 -33 13 -9 9 -12 4 -12 -22z"/>
<path d="M6402 4490 c0 -14 2 -19 5 -12 2 6 2 18 0 25 -3 6 -5 1 -5 -13z"/>
<path d="M6002 4470 c0 -14 2 -19 5 -12 2 6 2 18 0 25 -3 6 -5 1 -5 -13z"/>
<path d="M11873 4440 c0 -25 2 -35 4 -22 2 12 2 32 0 45 -2 12 -4 2 -4 -23z"/>
<path d="M5988 4417 c-3 -19 -2 -25 4 -19 6 6 8 18 6 28 -3 14 -5 12 -10 -9z"/>
<path d="M7212 4395 c-7 -14 -12 -32 -12 -40 0 -8 -4 -15 -10 -15 -5 0 -10 -6
-10 -13 0 -7 -9 -23 -20 -35 -11 -12 -20 -24 -20 -27 0 -14 -26 -31 -39 -27
-8 3 -11 0 -7 -6 4 -7 -8 -25 -26 -41 -27 -24 -38 -28 -70 -23 -26 3 -38 1
-38 -8 0 -8 9 -11 25 -8 21 4 23 3 13 -9 -6 -8 -20 -12 -30 -10 -10 3 -16 2
-13 -2 11 -18 -86 -51 -176 -61 -119 -12 -142 -12 -134 0 4 6 -11 7 -39 4
l-46 -7 0 36 c0 23 -5 37 -16 41 -25 10 -30 -2 -9 -18 17 -12 17 -16 6 -30
-11 -13 -16 -14 -22 -5 -4 7 -15 13 -26 14 -10 1 -31 6 -47 10 -27 7 -28 9
-11 21 18 13 18 14 -3 14 -12 0 -22 -5 -22 -11 0 -5 -5 -7 -10 -4 -6 4 -8 10
-5 15 3 4 -4 6 -16 3 -15 -4 -22 0 -26 16 -3 11 -13 21 -23 21 -18 0 -90 72
-90 90 0 5 -5 10 -10 10 -19 0 10 -43 65 -95 104 -100 232 -148 400 -148 115
0 194 18 287 65 58 30 178 134 178 155 0 5 8 18 18 29 10 10 25 41 34 69 18
54 18 70 0 30z"/>
<path d="M10443 4396 c4 -12 37 -17 37 -6 0 5 10 11 23 13 12 2 3 4 -20 3 -24
0 -42 -5 -40 -10z"/>
<path d="M3190 4370 c0 -15 93 -255 108 -278 14 -22 20 -23 126 -20 l111 3 3
43 c2 28 -4 58 -17 85 -10 23 -30 69 -43 102 -22 57 -25 60 -53 55 -47 -8
-146 -4 -192 7 -24 6 -43 7 -43 3z"/>
<path d="M6919 4353 c-13 -16 -12 -17 4 -4 16 13 21 21 13 21 -2 0 -10 -8 -17
-17z"/>
<path d="M3694 4341 c-2 -2 -4 -148 -4 -323 l0 -319 26 -25 c24 -25 30 -26
115 -22 134 5 129 -6 129 279 0 244 2 253 46 206 90 -95 312 -109 473 -30 53
25 93 55 138 101 35 36 63 72 63 81 0 9 -3 11 -9 5 -6 -5 -71 -7 -158 -4 -106
4 -164 1 -203 -9 -74 -18 -164 -10 -220 20 -39 21 -64 25 -180 30 -74 3 -152
8 -173 10 -21 3 -40 2 -43 0z"/>
<path d="M4961 4334 c0 -11 3 -14 6 -6 3 7 2 16 -1 19 -3 4 -6 -2 -5 -13z"/>
<path d="M6190 4342 c0 -7 7 -20 15 -28 19 -20 20 -4 0 22 -9 12 -14 14 -15 6z"/>
<path d="M9481 4338 c1 -7 4 -24 8 -38 7 -25 7 -25 13 -2 3 12 2 22 -4 22 -5
0 -7 4 -3 9 3 5 1 12 -5 16 -5 3 -10 0 -9 -7z"/>
<path d="M5287 4329 c7 -7 15 -10 18 -7 3 3 -2 9 -12 12 -14 6 -15 5 -6 -5z"/>
<path d="M5945 4321 c-3 -12 -11 -21 -16 -21 -5 0 -9 -8 -9 -17 0 -12 7 -7 21
15 12 18 19 35 16 38 -3 3 -8 -4 -12 -15z"/>
<path d="M5635 4320 c-3 -5 -2 -10 4 -10 5 0 13 5 16 10 3 6 2 10 -4 10 -5 0
-13 -4 -16 -10z"/>
<path d="M8063 4280 c0 -25 2 -35 4 -22 2 12 2 32 0 45 -2 12 -4 2 -4 -23z"/>
<path d="M8840 4310 c0 -5 -7 -10 -15 -10 -8 0 -15 -4 -15 -10 0 -15 39 -12
56 4 19 20 18 26 -6 26 -11 0 -20 -4 -20 -10z"/>
<path d="M4957 4288 c-8 -29 -9 -555 -1 -584 11 -39 61 -57 152 -53 123 6 117
-7 115 274 -3 218 -1 235 15 235 9 0 22 -8 29 -18 6 -10 37 -32 70 -48 55 -28
64 -29 188 -29 140 0 172 9 269 72 46 31 125 114 90 95 -12 -6 -32 -25 -45
-41 -33 -42 -57 -40 -164 14 -49 25 -99 45 -112 45 -13 0 -23 5 -23 10 0 6
-24 10 -53 10 -28 0 -68 5 -87 11 -21 6 -115 10 -229 9 -136 -1 -196 2 -201
10 -5 7 -10 3 -13 -12z"/>
<path d="M6830 4287 c-58 -26 -206 -28 -264 -3 -56 23 -57 12 -1 -13 77 -34
239 -24 305 18 29 19 4 18 -40 -2z"/>
<path d="M5575 4284 l-30 -15 30 6 c17 4 34 11 40 16 13 13 -5 10 -40 -7z"/>
<path d="M7665 4270 c-3 -5 -15 -10 -26 -10 -10 0 -19 -4 -19 -10 0 -5 14 -10
30 -10 23 0 30 4 30 20 0 22 -5 26 -15 10z"/>
<path d="M8810 4250 c0 -5 9 -10 19 -10 11 0 23 5 26 10 4 6 -5 10 -19 10 -14
0 -26 -4 -26 -10z"/>
<path d="M6770 4151 c0 -3 12 -14 28 -24 25 -17 25 -18 3 -11 -16 4 -21 3 -17
-5 10 -16 86 -14 86 2 0 9 2 9 8 0 6 -10 12 -10 28 3 18 15 18 15 -3 9 -13 -4
-23 -2 -23 4 0 5 15 13 33 17 17 4 26 9 20 11 -7 3 -27 -3 -45 -11 -30 -16
-68 -14 -68 3 0 5 -11 9 -25 9 -14 0 -25 -3 -25 -7z"/>
<path d="M6465 4130 c-3 -5 1 -10 10 -10 9 0 13 5 10 10 -3 6 -8 10 -10 10 -2
0 -7 -4 -10 -10z"/>
</g>
</svg>
